<svg width="240" height="64" viewBox="0 0 240 64" fill="none" xmlns="http://www.w3.org/2000/svg">
<path d="M82.76 18V5.04H84.713L89.195 14.22L93.677 5.04H95.63V18H93.605V9.693L89.627 18H88.763L84.794 9.693V18H82.76ZM97.9784 18V5.04H100.147V18H97.9784ZM101.403 18L105.795 11.448L101.529 5.04H104.184L107.136 9.603L110.061 5.04H112.734L108.468 11.448L112.842 18H110.187L107.136 13.293L104.076 18H101.403ZM118.854 18.27C117.558 18.27 116.448 17.988 115.524 17.424C114.6 16.854 113.889 16.062 113.391 15.048C112.899 14.034 112.653 12.858 112.653 11.52C112.653 10.182 112.899 9.006 113.391 7.992C113.889 6.978 114.6 6.189 115.524 5.625C116.448 5.055 117.558 4.77 118.854 4.77C120.15 4.77 121.26 5.055 122.184 5.625C123.114 6.189 123.825 6.978 124.317 7.992C124.815 9.006 125.064 10.182 125.064 11.52C125.064 12.858 124.815 14.034 124.317 15.048C123.825 16.062 123.114 16.854 122.184 17.424C121.26 17.988 120.15 18.27 118.854 18.27ZM118.854 16.227C119.724 16.233 120.447 16.041 121.023 15.651C121.605 15.261 122.04 14.712 122.328 14.004C122.622 13.296 122.769 12.468 122.769 11.52C122.769 10.572 122.622 9.75 122.328 9.054C122.04 8.352 121.605 7.806 121.023 7.416C120.447 7.026 119.724 6.825 118.854 6.813C117.984 6.807 117.261 6.999 116.685 7.389C116.109 7.779 115.674 8.328 115.38 9.036C115.092 9.744 114.948 10.572 114.948 11.52C114.948 12.468 115.092 13.293 115.38 13.995C115.668 14.691 116.1 15.234 116.676 15.624C117.258 16.014 117.984 16.215 118.854 16.227ZM126.496 18V5.04H128.692L134.704 14.175V5.04H136.9V18H134.704L128.692 8.865V18H126.496ZM141.399 18L145.485 5.04H148.662L152.748 18H150.516L146.808 6.372H147.294L143.631 18H141.399ZM143.676 15.192V13.167H150.48V15.192H143.676ZM154.195 18V5.04H156.364V18H154.195Z" fill="url(#paint0_linear_9_800)"/>
<g opacity="0.4" filter="url(#filter0_f_9_800)">
<rect x="30" y="30" width="180" height="4" rx="2" fill="url(#paint1_linear_9_800)"/>
</g>
<rect x="30" y="30" width="180" height="1" rx="0.5" fill="url(#paint2_radial_9_800)"/>
<defs>
<filter id="filter0_f_9_800" x="0" y="0" width="240" height="64" filterUnits="userSpaceOnUse" color-interpolation-filters="sRGB">
<feFlood flood-opacity="0" result="BackgroundImageFix"/>
<feBlend mode="normal" in="SourceGraphic" in2="BackgroundImageFix" result="shape"/>
<feGaussianBlur stdDeviation="15" result="effect1_foregroundBlur_9_800"/>
</filter>
<linearGradient id="paint0_linear_9_800" x1="158.5" y1="20" x2="138.093" y2="-24.1551" gradientUnits="userSpaceOnUse">
<stop stop-color="#0052D4"/>
<stop offset="0.47619" stop-color="#4364F7"/>
<stop offset="1" stop-color="#66A8F3"/>
</linearGradient>
<linearGradient id="paint1_linear_9_800" x1="210" y1="34" x2="209.478" y2="22.1149" gradientUnits="userSpaceOnUse">
<stop stop-color="#0052D4"/>
<stop offset="0.47619" stop-color="#4364F7"/>
<stop offset="1" stop-color="#66A8F3"/>
</linearGradient>
<radialGradient id="paint2_radial_9_800" cx="0" cy="0" r="1" gradientTransform="matrix(90 0 -89.9732 1.48835 120 30.4999)" gradientUnits="userSpaceOnUse">
<stop stop-color="#4364F7"/>
<stop offset="1" stop-opacity="0"/>
</radialGradient>
</defs>
</svg>
